<svg xmlns="http://www.w3.org/2000/svg" xmlns:xlink="http://www.w3.org/1999/xlink" width="146.8349" height="358.0535" viewBox="0 0 146.8349 358.0535"><defs><style>.a {fill: none;}.b {fill: url(#a);}.c {fill: url(#b);}.d {fill: url(#c);}.e {fill: url(#d);}.f {fill: url(#e);}.g {fill: url(#f);}.h {fill: url(#g);}.i {fill: url(#h);}.j {fill: url(#i);}.k {fill: url(#j);}.l {fill: url(#k);}.m {fill: url(#l);}.n {fill: url(#m);}.o {fill: url(#n);}.p {fill: url(#o);}.q {fill: #fff;}.r {fill: url(#p);}.s {fill: url(#q);}.t {fill: url(#r);}.u {fill: url(#s);}.v {fill: url(#t);}.w {fill: url(#u);}.x {fill: url(#v);}.y {fill: url(#w);}.z {fill: url(#x);}.aa {fill: url(#y);}.ab {fill: url(#z);}.ac {fill: url(#aa);}.ad {fill: url(#ab);}.ae {fill: url(#ac);}.af {fill: url(#ad);}.ag {fill: url(#ae);}.ah {fill: url(#af);}.ai {fill: url(#ag);}.aj {fill: url(#ah);}.ak {fill: url(#ai);}.al {fill: url(#aj);}.am {fill: url(#ak);}.an {fill: url(#al);}.ao {fill: url(#am);}.ap {fill: url(#an);}.aq {fill: url(#ao);}.ar {fill: url(#ap);}.as {fill: url(#aq);}.at {fill: url(#ar);}.au {clip-path: url(#as);}</style><linearGradient id="a" x1="181.3475" y1="216.4436" x2="52.1782" y2="281.0283" gradientUnits="userSpaceOnUse"><stop offset="0" stop-color="#f29739"/><stop offset="0.1462" stop-color="#f08a38"/><stop offset="0.2883" stop-color="#ef8337"/><stop offset="0.6871" stop-color="#e73820"/><stop offset="1" stop-color="#e50020"/></linearGradient><linearGradient id="b" x1="109.5874" y1="72.9234" x2="-19.5819" y2="137.5081" xlink:href="#a"/><linearGradient id="c" x1="139.113" y1="131.9746" x2="9.9436" y2="196.5593" xlink:href="#a"/><linearGradient id="d" x1="160.3069" y1="174.3625" x2="31.1376" y2="238.9471" xlink:href="#a"/><linearGradient id="e" x1="137.9422" y1="129.633" x2="8.7729" y2="194.2177" xlink:href="#a"/><linearGradient id="f" x1="157.3084" y1="168.3655" x2="28.1391" y2="232.9502" xlink:href="#a"/><linearGradient id="g" x1="94.67" y1="34.8633" x2="-35.8878" y2="98.1976" xlink:href="#a"/><linearGradient id="h" x1="114.0739" y1="81.8963" x2="-15.0955" y2="146.481" xlink:href="#a"/><linearGradient id="i" x1="116.0478" y1="85.8443" x2="-13.1215" y2="150.429" xlink:href="#a"/><linearGradient id="j" x1="182.2525" y1="218.2537" x2="53.0832" y2="282.8383" xlink:href="#a"/><linearGradient id="k" x1="122.3155" y1="98.3796" x2="-6.8538" y2="162.9643" xlink:href="#a"/><linearGradient id="l" x1="131.2018" y1="116.1522" x2="2.0324" y2="180.7369" xlink:href="#a"/><linearGradient id="m" x1="139.6093" y1="132.9671" x2="10.4399" y2="197.5518" xlink:href="#a"/><linearGradient id="n" x1="148.1088" y1="149.9662" x2="18.9394" y2="214.5509" xlink:href="#a"/><linearGradient id="o" x1="155.889" y1="165.5266" x2="26.7197" y2="230.1113" xlink:href="#a"/><linearGradient id="p" data-name="名称未設定グラデーション 40" x1="92.4813" y1="261.9037" x2="29.4813" y2="348.9037" gradientUnits="userSpaceOnUse"><stop offset="0" stop-color="#f29600"/><stop offset="0.1462" stop-color="#f08900"/><stop offset="0.2883" stop-color="#ef8200"/><stop offset="0.524" stop-color="#ec6c00"/><stop offset="0.6959" stop-color="#e7380d"/><stop offset="1" stop-color="#e50020"/></linearGradient><linearGradient id="q" x1="96.9994" y1="265.1754" x2="33.9994" y2="352.1754" xlink:href="#p"/><linearGradient id="r" x1="98.926" y1="266.5706" x2="35.926" y2="353.5706" xlink:href="#p"/><linearGradient id="s" x1="103.4441" y1="269.8423" x2="40.4441" y2="356.8423" xlink:href="#p"/><linearGradient id="t" x1="105.3707" y1="271.2374" x2="42.3707" y2="358.2374" xlink:href="#p"/><linearGradient id="u" x1="109.8888" y1="274.5091" x2="46.8888" y2="361.5091" xlink:href="#p"/><linearGradient id="v" x1="111.8154" y1="275.9043" x2="48.8154" y2="362.9043" xlink:href="#p"/><linearGradient id="w" x1="116.3335" y1="279.176" x2="53.3335" y2="366.176" xlink:href="#p"/><linearGradient id="x" x1="118.2601" y1="280.5711" x2="55.2601" y2="367.5711" xlink:href="#p"/><linearGradient id="y" x1="122.7782" y1="283.8428" x2="59.7782" y2="370.8428" xlink:href="#p"/><linearGradient id="z" x1="124.7048" y1="285.238" x2="61.7048" y2="372.238" xlink:href="#p"/><linearGradient id="aa" x1="129.2229" y1="288.5097" x2="66.2229" y2="375.5097" xlink:href="#p"/><linearGradient id="ab" x1="131.1495" y1="289.9048" x2="68.1495" y2="376.9048" xlink:href="#p"/><linearGradient id="ac" x1="135.6676" y1="293.1765" x2="72.6676" y2="380.1765" xlink:href="#p"/><linearGradient id="ad" x1="137.5942" y1="294.5717" x2="74.5942" y2="381.5717" xlink:href="#p"/><linearGradient id="ae" x1="142.1123" y1="297.8434" x2="79.1123" y2="384.8434" xlink:href="#p"/><linearGradient id="af" x1="169.2207" y1="317.4736" x2="106.2207" y2="404.4736" xlink:href="#p"/><linearGradient id="ag" x1="120.8516" y1="282.4477" x2="57.8516" y2="369.4477" xlink:href="#p"/><linearGradient id="ah" x1="125.3696" y1="285.7194" x2="62.3696" y2="372.7194" xlink:href="#p"/><linearGradient id="ai" x1="127.2963" y1="287.1145" x2="64.2963" y2="374.1145" xlink:href="#p"/><linearGradient id="aj" x1="131.8143" y1="290.3862" x2="68.8143" y2="377.3862" xlink:href="#p"/><linearGradient id="ak" x1="129.8877" y1="288.9911" x2="66.8877" y2="375.9911" xlink:href="#p"/><linearGradient id="al" x1="134.4058" y1="292.2628" x2="71.4058" y2="379.2628" xlink:href="#p"/><linearGradient id="am" x1="136.3324" y1="293.658" x2="73.3324" y2="380.658" xlink:href="#p"/><linearGradient id="an" x1="140.8505" y1="296.9297" x2="77.8505" y2="383.9297" xlink:href="#p"/><linearGradient id="ao" x1="138.9238" y1="295.5345" x2="75.9238" y2="382.5345" xlink:href="#p"/><linearGradient id="ap" x1="143.4419" y1="298.8062" x2="80.4419" y2="385.8062" xlink:href="#p"/><linearGradient id="aq" x1="145.3685" y1="300.2014" x2="82.3685" y2="387.2014" xlink:href="#p"/><linearGradient id="ar" x1="149.8866" y1="303.4731" x2="86.8866" y2="390.4731" xlink:href="#p"/><clipPath id="as"><path class="a" d="M74.333,305.2253v8.7664c3.2744,1.106,3.7655,1.4218,3.7655,2.5269,0,2.9225-2.6192,4.7389-12.1145,4.7389H47.8131c-9.0037,0-11.1318-1.6586-11.1318-8.7665V287.9284l8.9219,3.396h6.9573V276.3982H37.09l-.3272-.8692a41.4007,41.4007,0,0,1-5.4025,5.2125l2.2921,1.58a6.1425,6.1425,0,0,1-3.1922,1.5006v28.8271c0,.079-2.21,1.9744-7.6124,1.9744v-5.4494h-7.94v7.8192c0,.5526-2.3739,2.29-6.139,2.29H7.46V291.641a72.8453,72.8453,0,0,1-5.4844,6.8711L.83,297.485c5.975-11.0565,9.0037-25.6678,10.4771-40.0423H1.5662l-.409-1.58H23.0937l4.5017-5.5283,8.3489,5.7659c-.6547,1.0262-1.7187,1.342-3.9287,1.342H19.9833a86.3683,86.3683,0,0,1-5.9754,22.1928l1.9645.79H22.03l3.11-3.9487,4.83,3.3171c4.6656-7.1087,8.7579-19.1133,10.8042-30.96l11.6234,3.1593c-.3275,1.027-.9823,1.5007-3.11,1.58a72.568,72.568,0,0,1-3.2744,7.6613H66.3934l3.52-4.1863,8.1032,6.1606a4.7921,4.7921,0,0,1-3.2739,1.4218c-.4912,25.1144-1.4735,35.4613-5.1568,38.5408-2.3735,2.133-4.7474,3.0014-9.2491,3.0014,0-4.7389-1.1462-5.7651-7.04-6.95v-1.1849c2.2921.079,6.3844.1587,8.1036.1587,1.3094,0,1.8006-.08,2.4553-.7113,2.1281-2.0532,3.0286-12.7151,3.438-34.6719H45.2756a66.019,66.019,0,0,1-7.8578,12.0055h14.324l3.11-3.7916,8.5126,5.6869a5.8213,5.8213,0,0,1-3.1105,1.5007v15.6376c0,.0789-2.21,1.8953-7.6938,1.8953v-2.8434H44.5387V312.57c0,2.0533.164,2.1322,3.52,2.1322H65.9022c1.8828,0,3.1105-.0789,3.9292-.9473.9-1.027,2.1281-3.7118,3.7651-8.53Zm-59.4247,2.369h7.94V281.9264h-7.94Z"/></clipPath></defs><title>とある科学の超電磁砲T</title><path class="b" d="M74.333,305.2253v8.7664c3.2744,1.106,3.7655,1.4218,3.7655,2.5269,0,2.9225-2.6192,4.7389-12.1145,4.7389H47.8131c-9.0037,0-11.1318-1.6586-11.1318-8.7665V287.9284l8.9219,3.396h6.9573V276.3982H37.09l-.3272-.8692a41.4007,41.4007,0,0,1-5.4025,5.2125l2.2921,1.58a6.1425,6.1425,0,0,1-3.1922,1.5006v28.8271c0,.079-2.21,1.9744-7.6124,1.9744v-5.4494h-7.94v7.8192c0,.5526-2.3739,2.29-6.139,2.29H7.46V291.641a72.8453,72.8453,0,0,1-5.4844,6.8711L.83,297.485c5.975-11.0565,9.0037-25.6678,10.4771-40.0423H1.5662l-.409-1.58H23.0937l4.5017-5.5283,8.3489,5.7659c-.6547,1.0262-1.7187,1.342-3.9287,1.342H19.9833a86.3683,86.3683,0,0,1-5.9754,22.1928l1.9645.79H22.03l3.11-3.9487,4.83,3.3171c4.6656-7.1087,8.7579-19.1133,10.8042-30.96l11.6234,3.1593c-.3275,1.027-.9823,1.5007-3.11,1.58a72.568,72.568,0,0,1-3.2744,7.6613H66.3934l3.52-4.1863,8.1032,6.1606a4.7921,4.7921,0,0,1-3.2739,1.4218c-.4912,25.1144-1.4735,35.4613-5.1568,38.5408-2.3735,2.133-4.7474,3.0014-9.2491,3.0014,0-4.7389-1.1462-5.7651-7.04-6.95v-1.1849c2.2921.079,6.3844.1587,8.1036.1587,1.3094,0,1.8006-.08,2.4553-.7113,2.1281-2.0532,3.0286-12.7151,3.438-34.6719H45.2756a66.019,66.019,0,0,1-7.8578,12.0055h14.324l3.11-3.7916,8.5126,5.6869a5.8213,5.8213,0,0,1-3.1105,1.5007v15.6376c0,.0789-2.21,1.8953-7.6938,1.8953v-2.8434H44.5387V312.57c0,2.0533.164,2.1322,3.52,2.1322H65.9022c1.8828,0,3.1105-.0789,3.9292-.9473.9-1.027,2.1281-3.7118,3.7651-8.53Zm-59.4247,2.369h7.94V281.9264h-7.94Z"/><rect class="c" y="71.2401" width="75.3043" height="75.3018"/><path class="d" d="M95.767,136.5943v7.009c7.7088,2.3365,10.1881,5.7187,10.1881,8.2391a3.4379,3.4379,0,0,1-3.418,3.4445,3.8064,3.8064,0,0,1-2.7474-1.2915,18.8312,18.8312,0,0,0-4.0227-9.2849v27.24c-.0676.43-2.2787,1.9059-5.7643,1.9059H88.7974v-22.568A52.1011,52.1011,0,0,1,78.4086,162.91l-.9383-.7988c5.0928-6.9479,8.4429-16.54,10.2537-25.5172H78.4086l-.3345-1.233H88.7974v-9.7752c-3.6215.7386-7.4411,1.4145-10.926,1.906l-.2673-.8A143.2963,143.2963,0,0,0,98.582,116.1162l8.1772,6.0877a2.6752,2.6752,0,0,1-1.8759.5526,9.2358,9.2358,0,0,1-2.3462-.3683c-1.9458.5543-4.2225,1.1072-6.77,1.6594v11.3137h1.8762l3.4181-4.4259,6.3,4.6123c-.5351.7995-1.406,1.0466-3.1492,1.0466Zm39.8116,9.96,6.2354,4.4275c-.27.6747-.8707,1.1073-2.2131,1.2912l-8.3783,1.4132v17.771c0,.1241-1.0714,2.3364-6.97,2.3364V154.9178L104.3474,158.3l-.6071-1.1072,20.5119-3.5674v-37.57l9.6519.8614c-.1351.8606-.6685,1.2915-2.6815,1.5349v33.9435l1.54-.2449Zm-28.6855-7.9315c10.1866.4915,13.5391,3.9954,13.5391,6.7628a3.6443,3.6443,0,0,1-3.6854,3.5674,4.7231,4.7231,0,0,1-2.75-.9843c-1.0042-3.1364-4.1546-6.8268-7.4383-8.7933Zm2.0772-16.2976c9.582,1.17,12.7359,4.7361,12.7359,7.4433a3.643,3.643,0,0,1-3.6207,3.6271,4.2257,4.2257,0,0,1-2.8145-1.1063c-.7365-3.3217-3.6191-7.2573-6.7027-9.4713Z"/><path class="e" d="M128.6107,214.6115l4.2876-5.1052,7.7752,5.2891c-.5347.7381-1.3388,1.0457-3.2834,1.0457h-24.264v9.9c0,4.4891-1.2728,7.6857-10.589,8.4255,0-4.7967-2.8842-5.7822-9.45-6.3966v-.7992h11.3276c1.0726,0,1.405-.3679,1.405-1.23v-9.9H78.8111l-.4025-1.23H105.82v-6.0866l5.6984.3076a64.3993,64.3993,0,0,0,7.1726-7.3789H90.8755l-.4016-1.2313h28.3486l4.2245-3.6272,4.087,3.6272a73.0715,73.0715,0,0,0,2.6156-7.2544H88.5288a9.4445,9.4445,0,0,1,.1335,1.906c0,4.734-3.0156,7.3154-6.5,7.3154-2.0786,0-3.7534-1.0425-3.7534-2.7646,0-1.5373,1.3416-2.83,2.9477-3.4432a7.6,7.6,0,0,0,4.8942-7.3187l.9376-.0619a17.1579,17.1579,0,0,1,1.0718,3.1357H117.751a95.0648,95.0648,0,0,0,7.7074-14.818l9.7194,3.5661a1.625,1.625,0,0,1-1.6077.7984,7.19,7.19,0,0,1-1.0723-.1221,78.8387,78.8387,0,0,1-13.0027,10.5756h9.8541l4.1509-3.873,7.3085,6.3332c-.4712.5534-1.2077.6771-2.6144.7992a63.66,63.66,0,0,1-10.1215,6.0263l1.8779,1.66c-.5379.4923-1.34.6144-2.8166.7381a109.448,109.448,0,0,1-12.8022,5.5958l1.3412.06c-.0648.7975-.4692,1.23-2.5469,1.4136v4.1212ZM87.6572,177.839c8.3783,2.03,11.1262,5.4754,11.1262,8.1187a3.7943,3.7943,0,0,1-3.7546,3.8135A4.1987,4.1987,0,0,1,92.08,188.417,17.7028,17.7028,0,0,0,87.1881,178.27Zm15.6831-1.475c7.9071,2.46,10.456,5.9046,10.456,8.6089a4.2615,4.2615,0,0,1-4.1534,4.2425,4.1605,4.1605,0,0,1-3.2165-1.5968,17.4847,17.4847,0,0,0-3.6243-10.8856Z"/><path class="f" d="M69.7272,154.5552l4.7983,4.653c-.3536.4147-.9111.518-1.8682.621a31.2533,31.2533,0,0,1-5.4053,4.5521l-.6068-.363.1009-.5159a3.5423,3.5423,0,0,1-1.7175.3072H54.3708l-.3035-1.0331H61.14l2.1192-2.5314,3.6386,2.4288c.251-1.3448.4557-3,.6054-4.2909H52.5023v12.2521c0,.26-1.6167,1.189-4.3441,1.189h-.9591V158.383H33.0565a9.67,9.67,0,0,1,.1509,1.6542c0,2.8422-1.5161,5.068-4.0405,5.068-1.517,0-2.8289-.8293-2.8289-2.38a3.2347,3.2347,0,0,1,2.2222-2.8438,4.6351,4.6351,0,0,0,2.78-4.6538l.7051-.05q.4536,1.1616.7573,2.17H47.1991v-4.9114H31.389l-.3032-1.0348H61.2411l2.88-3.7236,5.4038,3.8266c-.3536.7238-1.0107.9318-2.3759.9318H52.5023v4.9114H67.0489ZM41.7436,165.412l4.0915,2.7417c-.3548.6723-1.0112.8794-2.2234.8794H32.45l-.3035-1.0348h7.4753Zm29.7521,20.1656v4.5517c2.017.8252,2.2729.93,2.2729,1.757,0,1.915-1.5662,3.0494-7.3264,3.0494h-12.02c-5.9616,0-7.1726-.9814-7.1726-6.2542V186.096H38.0566v1.4991c0,.1554-.8093,1.9638-5.2536,1.9638V171.1018l5.6573,2.275H61.5422l2.1225-2.793,5.6584,4.0841a3.7445,3.7445,0,0,1-1.97,1.0869v11.22c0,.05-1.4669,1.4982-5.3049,1.4982V186.096H52.5023V188.99c0,1.7587.151,1.8629,2.1713,1.8629H66.6941c2.6787,0,2.7295,0,4.244-5.2752ZM41.5919,160.2955l3.9405,2.6355c-.354.6743-1.0108.8786-2.2222.8786H33.3079l-.2514-1.0331h6.5147Zm5.6572,14.1157H38.0566v4.7043h9.1925Zm-9.1925,10.65h9.1925v-4.9123H38.0566Zm23.9918-10.65H52.5023v4.7043h9.5461Zm-9.5461,10.65h9.5461v-4.9123H52.5023Zm11.7182-19.7523,4.3458,2.8443c-.4045.6723-1.0633.8794-2.2754.8794h-11.97l-.3028-1.0348h7.9812Z"/><path class="g" d="M74.1857,221.594c-.2494.6339-.7443,1.0018-2.3585.95a110.293,110.293,0,0,1-10.68,17.4239c2.2978-.1555,4.9057-.3679,7.5754-.5795a20.7748,20.7748,0,0,0-2.4215-5.053l.7446-.3141c6.21,3.1031,8.2587,6.5789,8.2587,9.1058a3.2133,3.2133,0,0,1-5.65,2.5277,15.1589,15.1589,0,0,0-.56-4.9488c-2.4821,1.1036-5.8961,2.4732-10.182,4.1586a2.1733,2.1733,0,0,1-1.6773,1.21l-.93-1.9978a3.043,3.043,0,0,1-2.7308,1.7855,3.0787,3.0787,0,0,1-2.3626-1.1036,15.7742,15.7742,0,0,0-.3084-3.7891c-2.6087,1.0523-6.0857,2.4757-10.4938,4.2115a2.3352,2.3352,0,0,1-1.6756,1.2094l-2.5469-5.6325a11.5139,11.5139,0,0,1-4.6558.74v-3.53H26.377v5.1051c0,.372-1.7391,1.4755-4.5333,1.4755h-.9929V226.3865a37.9146,37.9146,0,0,1-3.54,4.1034l-.8691-.682c4.161-7.2642,6.2721-16.899,7.3891-26.27H17.0023l-.3121-1.0514H31.4683l3.3518-3.6346,6.21,3.7395c-.4354.6844-1.3037.9465-2.9183.9465H30.1654a53.9534,53.9534,0,0,1-4.3462,14.6886l1.3021.4745h3.8506l2.2355-2.53,6.1473,3.7411a4.1812,4.1812,0,0,1-2.2377.9465v.7357l.1262-.1042a24.506,24.506,0,0,1,4.345,1.5821c1.0567-3.5312,2.1106-8.4263,2.9187-12.6378l7.8233,1.8425c-.1848.6323-.7443,1-2.2347,1a65.8406,65.8406,0,0,1-7.0791,10.5845c1.987,1.3135,2.7336,2.7352,2.7336,3.9453a2.8924,2.8924,0,0,1-2.98,2.8436,3.43,3.43,0,0,1-2.2967-1,12.6151,12.6151,0,0,0-3.3558-7.37v17.8976c0,.1057-.3084.2636-.7437.4736,1.3672-.0513,3.2914-.21,5.65-.3679a180.54,180.54,0,0,0,6.8927-20.6872l7.4506,1.9458-.0623.1579a11.7167,11.7167,0,0,1,2.2347.95c1.1186-3.4775,2.2978-8.108,3.1666-12.2154l7.9486,1.95c-.1868.682-.7476.9978-2.2995.9978A61.6435,61.6435,0,0,1,60.1538,223.65c1.801,1.2614,2.483,2.6311,2.483,3.7908a3.0556,3.0556,0,0,1-3.1031,2.9476,3.333,3.333,0,0,1-2.4854-1.1076,11.8838,11.8838,0,0,0-2.3577-6.7368H54.007a110.3839,110.3839,0,0,1-10.1828,17.6339c2.0479-.1563,4.3465-.3655,6.705-.5779a15.7245,15.7245,0,0,0-2.2352-4.8951l.6841-.2637c3.9734,1.8954,6.146,3.947,7.0769,5.79l3.0437-.1578A191.4479,191.4479,0,0,0,66.55,219.4886ZM26.377,236.9687h5.1536V219.7523H26.377Zm11.2385-28.1663H59.16c1.2419-3.3692,2.5457-8.1065,3.3526-11.3715l9.1282,2.2112c-.2494.6306-.87.8943-2.3605.8446a118.0356,118.0356,0,0,1-8.692,8.3157h4.9684l3.4127-3.6858,6.3348,3.7924c-.4367.7357-1.3058.9457-2.92.9457H37.9268Zm4.47-11.2128c7.45,1.8409,9.8732,4.8439,9.8732,7.16a3.3825,3.3825,0,0,1-3.416,3.3171,3.7271,3.7271,0,0,1-2.6706-1.106,15.0672,15.0672,0,0,0-4.2839-9.0553Z"/><path class="h" d="M115.3084,14.3757c.6624-1.1588,2.4231-1.772,4.55-1.772,4.0374,0,8.7344,4.633,8.7344,7.3585,0,2.9289-2.7894,3.27-6.3873,3.9535-15.1159,3.3371-33.54,10.6953-33.54,19.5525,0,6.3368,7.4126,6.95,16.6633,6.95,7.0448,0,14.1633-.9542,16.2162-2.452,4.8458.5436,8.8836,1.6337,8.8836,4.3584,0,2.25-3.1588,2.9985-7.0464,3.4762a151.9229,151.9229,0,0,1-17.688.8855c-12.4775,0-22.1656-2.8618-22.1656-12.6052,0-6.6771,7.5583-12.4678,15.0455-16.6227-4.7694-1.8413-4.7694-7.4957-4.7694-16.558V8.1065c0-1.7709,0-4.7686-4.3315-4.7686a7.8382,7.8382,0,0,0-1.246.1363l-.2213-.4089A5.9725,5.9725,0,0,1,93.29,0c4.99.0668,9.1746,2.9294,9.1746,5.995,0,1.0914-.8093,2.4533-1.1743,4.0866a35.3308,35.3308,0,0,0-.66,7.02c0,2.6563,0,7.4253,3.0844,7.97,3.0791-1.4975,8.2912-3.882,11.8154-5.3814,2.2018-.885,3.5951-1.7709,3.5951-2.9977,0-1.0914-1.7611-2.249-3.5951-2.0456Z"/><path class="i" d="M128.0577,63.5837c2.0337.2588,5.2491.9082,5.2491,2.5937,0,1.5991-2.4838,2.1619-6.2273,2.9826a80.938,80.938,0,0,1-8.2575,1.34c-.1627,1.512-.245,3.4571-.3247,5.4883a19.7687,19.7687,0,0,1,6.6713-.95,4.0909,4.0909,0,0,0-.3239-1.9023l.3239-.2593a4.01,4.01,0,0,1,1.9947,2.3349c6.5891.8211,11.2685,4.71,11.2685,10.589,0,6.3974-5.0469,10.8059-17.902,12.0156l-.2429-.8207c9.1107-1.3839,13.384-6.0952,13.4255-11.4118,0-4.3218-2.0743-7.6068-6.2631-8.7311v.346c0,2.076-2.2,7.09-5.9836,11.2823a3.9478,3.9478,0,0,1,.6515,1.8144c0,.8215-.4082,2.4651-1.7493,2.4651a2.75,2.75,0,0,1-1.9528-1.3836,13.8272,13.8272,0,0,1-8.4612,3.37,4.51,4.51,0,0,1-4.68-4.6677c0-5.1861,3.7847-10.2874,9.9705-13.0537.0382-2.1171.0382-4.3217.0785-6.3091-.7731.0411-1.5882.0855-2.3182.0855a5.6668,5.6668,0,0,1-5.8183-4.2363l.3678-.389c.8944.994,2.4806,1.4693,4.841,1.4693.8948,0,2.0346-.0859,3.0087-.129.044-1.4266.0814-2.983.0814-3.761,0-1.6847-.4069-2.42-2.9282-2.2035l-.0821-.2168a3.5786,3.5786,0,0,1,3.1335-1.9886c3.0511,0,5.0844,1.2976,5.0844,2.68,0,.6918-.7723,1.3827-.9749,2.3344-.162.7345-.2845,1.6415-.4485,2.68,2.32-.302,8.257-1.34,8.6253-3.3278ZM111.5005,90.598a9.0692,9.0692,0,0,0,5.0433-2.29,25.7343,25.7343,0,0,1-1.3-9.0765c-3.9487,2.5058-6.2269,5.7476-6.2269,9.0334C109.0172,90.0369,109.59,90.598,111.5005,90.598Zm6.9968-13.096a20.4158,20.4158,0,0,0,1.22,7.9092,22.0457,22.0457,0,0,0,5.2475-8.9464,9.2887,9.2887,0,0,0-1.058-.0435A17.22,17.22,0,0,0,118.4973,77.502Z"/><path class="j" d="M89.175,97.4345a21.7377,21.7377,0,0,1,9.28-2.6079c7.2861,0,9.8972,4.0276,9.8972,8.7433,0,5.6373-4.797,9.6259-12.6182,9.6259-5.0615,0-8.0137-2.225-8.0137-5.2549,0-2.2995,2.3389-4.7161,5.9812-4.7161,3.145,0,6.7116,2.1465,6.8263,5.1a3.0714,3.0714,0,0,1-.1929,1.0347,6.627,6.627,0,0,0,4.0654-6.2115c0-4.3332-2.1089-6.7486-6.3653-6.7486a17.0866,17.0866,0,0,0-13.23,7.4013c-.65.92-1.2276,2.109-2.3377,2.109-1.1894,0-1.8808-1.4953-1.8808-2.109,0-1.5731,1.0369-2.5313,2.0342-3.49,3.22-3.1056,10.5434-10.4287,15.1061-14.9544.1945-.1913.27-.3068.27-.4211s-.1161-.1921-.3443-.1921a29.514,29.514,0,0,0-7.9388,2.4927c-.8818.5368-1.1109.92-1.9935.92a4.2069,4.2069,0,0,1-3.7187-4.0275A2.7251,2.7251,0,0,1,85.15,81.9435l.1925.0777a2.0546,2.0546,0,0,0,2.3393,2.223,44.7614,44.7614,0,0,0,9.7007-1.61c.7674-.3068,1.1886-1.0746,1.7249-1.0746,1.8046,0,4.22,2.1089,4.22,3.221,0,1.1891-1.3806,1.3038-2.7995,2.2628A82.3308,82.3308,0,0,0,88.9081,97.2811Zm6.0991,12.8848a12.6471,12.6471,0,0,0,2.2621-.23,1.6119,1.6119,0,0,1-.3841-.7675,4.7653,4.7653,0,0,0-4.5228-4.102c-1.8031,0-2.8382.9205-2.8773,2.3C89.752,109.7818,92.6293,110.3193,95.2741,110.3193Z"/><path class="k" d="M105.39,273.4139c13.4162-2.6009,18.383-10.8075,18.383-18.71,0-9.5315-3.8558-16.6158-14.7382-16.6158a21.7884,21.7884,0,0,0-4.7535.61,6.3715,6.3715,0,0,1,3.5392,6.0662c0,9.7862-6.8666,24.6726-14.8416,24.6726-4.4927,0-7.7138-4.3344-7.7138-11.4708,0-11.0615,9.5083-21.5093,23.93-21.5093,13.1525,0,20.7052,7.5442,20.7052,18.5038,0,10.1419-6.3385,17.9936-24.2449,19.4194Zm-2.6416-34.41C94.9849,241.45,90.23,248.9961,90.23,257.7618c0,3.619,1.0039,5.9148,2.9066,5.9148,4.7519,0,10.6684-12.49,10.6684-21.4116A4.5458,4.5458,0,0,0,102.7483,239.004Z"/><g><path class="l" d="M4.8573,160.3082a9.62,9.62,0,0,0,5.5583-4.1469,10.4512,10.4512,0,0,0,1.2859,1.2989,12.6082,12.6082,0,0,1-7.6629,4.9623.44.44,0,0,1-.2674.3039l-.9692-1.613.1863-.3146v-8.0934l2.2433.116c-.0126.1408-.1172.2584-.3743.3028Z"/><path class="m" d="M5.3826,173.5811l2.3246.1176c-.0113.1392-.118.2563-.3747.3142v9.5546h-1.95Z"/><path class="n" d="M4.74,196.233a.3193.3193,0,0,1-.3146.2807c-.0463,3.4433-.3975,6.0841-1.9039,8.29-.41-.2678-1.0982-.6633-1.6-.92,1.4705-1.7773,1.6813-4.8609,1.6573-7.78Zm2.99,5.7561a6.433,6.433,0,0,0,2.6518-4.0407,10.6778,10.6778,0,0,0,1.6.9824,8.8172,8.8172,0,0,1-4.6363,5.3825.9921.9921,0,0,1-.3043.3166l-1.3331-1.5422.2108-.2816v-8.1626l2.1725.1067c-.0232.1375-.1168.2653-.3613.3158Z"/><path class="o" d="M11.0471,218.1344a.4123.4123,0,0,1-.1635.21c-.175,3.6337-.5261,5.713-.9681,6.3788a2.194,2.194,0,0,1-1.9169.98,10.7578,10.7578,0,0,1-1.9731-.2083,11.58,11.58,0,0,0-.1408-1.7871,11.4194,11.4194,0,0,0,1.7505.2555.7139.7139,0,0,0,.737-.4338,14.099,14.099,0,0,0,.56-4.0527H6.4805a10.8889,10.8889,0,0,1-3.552,6.2387A9.5918,9.5918,0,0,0,1.47,224.6409a8.73,8.73,0,0,0,3.119-5.1743H1.9356v-1.6577h2.98c.1055-.7942.1169-1.4477.1628-2.3137l2.2771.188c-.0228.14-.14.2442-.3736.28-.07.6877-.0923,1.2037-.1863,1.8572H9.4118l.3263-.1278Zm-2.0788-2.8589a9.9312,9.9312,0,0,1,1.309,1.5772l-.83.6038a12.4466,12.4466,0,0,0-1.2614-1.5975Zm1.8913-.4444a10.1589,10.1589,0,0,1,1.32,1.53l-.8289.6054a11,11,0,0,0-1.261-1.5535Z"/><path class="p" d="M2.649,237.1762a15.2009,15.2009,0,0,1,3.3993,1.508l-.9339,1.6235A18.2326,18.2326,0,0,0,1.8087,238.72ZM2.09,244.9783a11.6894,11.6894,0,0,0,7.8493-6.644,11.9033,11.9033,0,0,0,1.67,1.05A13.65,13.65,0,0,1,3.571,246.45a.4445.4445,0,0,1-.22.3158Z"/></g><path class="q" d="M25.3887,116.8828v15.4185c5.2874,1.6887,11.9688,2.0578,20.56,2.0578,6.1684,0,21.0722,0,27.68-.2213v1.027c-2.8629.5884-4.2579,3.1592-4.4043,6.0215H45.7273c-17.6212,0-27.1669-2.9383-33.04-15.933-1.3957,6.8279-3.7444,13.3633-8.15,17.9154l-1.0262-.881c3.3037-8.59,3.5967-24.0829,3.5967-34.3619l9.9851.5132c-.1477.9538-.7329,1.5405-2.6428,1.7627-.221,3.8913-.5876,8.1488-1.248,12.3343a20.26,20.26,0,0,0,5.1384,6.095V101.4641H4.3909L4.0231,100.07H18.0472V87.4391H7.0342l-.4411-1.4672H18.0472V74.2985l9.9856.88c-.0736,1.0278-.7341,1.4677-2.7894,1.7611v9.0318h2.2027l3.597-4.625,6.8288,4.8447c-.5876.9555-1.4694,1.2475-3.3769,1.2475H25.2434V100.07h3.01l3.8172-5.1406,7.1221,5.2134c5.2137-6.6819,6.02-13.6571,6.2408-19.8979h-8.81l-.441-1.4677h26.14l3.0832-3.6719,7.6349,5.6539a4.4774,4.4774,0,0,1-2.717,1.2476c-.7328,17.1814-2.3494,21.1463-12.1136,21.1463,0-4.2583-.809-5.5812-5.8014-6.6086V95.5167c1.6887.0737,5.1388.147,6.46.147,1.0291,0,1.471-.0733,1.9113-.4411,1.1747-1.0279,1.8343-5.6532,2.2017-14.978H53.5851c-.8818,8.0767-3.4514,16.8876-14.0974,23.6423L46.61,106.824H59.9727l3.0091-3.9649,8.2974,5.8741a5.423,5.423,0,0,1-2.9379,1.4685v17.7665c0,.1481-1.9077,2.498-7.637,2.498v-4.4056H46.2428v2.8638c0,.0749-1.1031,2.6437-7.4159,2.6437V104.3287a41.4515,41.4515,0,0,1-4.4056,2.3483l-.8081-.9541a44.5419,44.5419,0,0,0,4.9928-4.6995h-.0721a6.2972,6.2972,0,0,1-2.719.4407H27.4461c-.2219.4407-.8074.7341-2.0574.955v12.9955h2.57l3.5242-5.2129,6.6082,5.359c-.588.9546-1.6146,1.3221-3.45,1.3221Zm35.3156-8.59H46.2428v16.3H60.7043Z"/><g><rect class="r" x="69.8349" y="283.5113" width="8.231" height="7.9655"/><rect class="s" x="69.8349" y="293.0223" width="8.231" height="7.9655"/><rect class="t" x="79.659" y="283.5113" width="8.231" height="7.9655"/><rect class="u" x="79.659" y="293.0223" width="8.231" height="7.9655"/><rect class="v" x="89.4832" y="283.5113" width="8.231" height="7.9655"/><rect class="w" x="89.4832" y="293.0223" width="8.231" height="7.9655"/><rect class="x" x="99.3073" y="283.5113" width="8.231" height="7.9655"/><rect class="y" x="99.3073" y="293.0223" width="8.231" height="7.9655"/><rect class="z" x="109.1314" y="283.5113" width="8.231" height="7.9655"/><rect class="aa" x="109.1314" y="293.0223" width="8.231" height="7.9655"/><rect class="ab" x="118.9556" y="283.5113" width="8.231" height="7.9655"/><rect class="ac" x="118.9556" y="293.0223" width="8.231" height="7.9655"/><rect class="ad" x="128.7797" y="283.5113" width="8.231" height="7.9655"/><rect class="ae" x="128.7797" y="293.0223" width="8.231" height="7.9655"/><rect class="af" x="138.6038" y="283.5113" width="8.231" height="7.9655"/><rect class="ag" x="138.6038" y="293.0223" width="8.231" height="7.9655"/><rect class="ah" x="138.6038" y="350.0879" width="8.231" height="7.9655"/><rect class="ai" x="99.3073" y="302.5332" width="8.231" height="7.9655"/><rect class="aj" x="99.3073" y="312.0442" width="8.231" height="7.9655"/><rect class="ak" x="109.1314" y="302.5332" width="8.231" height="7.9655"/><rect class="al" x="109.1314" y="312.0442" width="8.231" height="7.9655"/><rect class="am" x="99.3073" y="321.5551" width="8.231" height="7.9655"/><rect class="an" x="99.3073" y="331.0661" width="8.231" height="7.9655"/><rect class="ao" x="109.1314" y="321.5551" width="8.231" height="7.9655"/><rect class="ap" x="109.1314" y="331.0661" width="8.231" height="7.9655"/><rect class="aq" x="99.3073" y="340.577" width="8.231" height="7.9655"/><rect class="ar" x="99.3073" y="350.0879" width="8.231" height="7.9655"/><rect class="as" x="109.1314" y="340.577" width="8.231" height="7.9655"/><rect class="at" x="109.1314" y="350.0879" width="8.231" height="7.9655"/></g><g class="au"><rect class="q" x="69.8349" y="283.5113" width="8.231" height="7.9655"/><rect class="q" x="69.8349" y="293.0223" width="8.231" height="7.9655"/></g></svg>
