<svg width="146.83490000000003" height="325" xmlns="http://www.w3.org/2000/svg" xmlns:xlink="http://www.w3.org/1999/xlink">
 <title>とある科学の超電磁砲</title>
 <defs>
  <clipPath id="as">
   <path id="svg_1" fill="none" d="m74.333,305.2253l0,8.7664c3.2744,1.106 3.7655,1.4218 3.7655,2.5269c0,2.9225 -2.6192,4.7389 -12.1145,4.7389l-18.1709,0c-9.0037,0 -11.1318,-1.6586 -11.1318,-8.7665l0,-24.5626l8.9219,3.396l6.9573,0l0,-14.9262l-15.4705,0l-0.3272,-0.8692a41.4007,41.4007 0 0 1 -5.4025,5.2125l2.2921,1.58a6.1425,6.1425 0 0 1 -3.1922,1.5006l0,28.8271c0,0.079 -2.21,1.9744 -7.6124,1.9744l0,-5.4494l-7.94,0l0,7.8192c0,0.5526 -2.3739,2.29 -6.139,2.29l-1.3088,0l0,-27.6424a72.8453,72.8453 0 0 1 -5.4844,6.8711l-1.1456,-1.0271c5.975,-11.0565 9.0037,-25.6678 10.4771,-40.0423l-9.7409,0l-0.409,-1.58l21.9365,0l4.5017,-5.5283l8.3489,5.7659c-0.6547,1.0262 -1.7187,1.342 -3.9287,1.342l-12.0323,0a86.3683,86.3683 0 0 1 -5.9754,22.1928l1.9645,0.79l6.0576,0l3.11,-3.9487l4.83,3.3171c4.6656,-7.1087 8.7579,-19.1133 10.8042,-30.96l11.6234,3.1593c-0.3275,1.027 -0.9823,1.5007 -3.11,1.58a72.568,72.568 0 0 1 -3.2744,7.6613l20.3802,0l3.52,-4.1863l8.1032,6.1606a4.7921,4.7921 0 0 1 -3.2739,1.4218c-0.4912,25.1144 -1.4735,35.4613 -5.1568,38.5408c-2.3735,2.133 -4.7474,3.0014 -9.2491,3.0014c0,-4.7389 -1.1462,-5.7651 -7.04,-6.95l0,-1.1849c2.2921,0.079 6.3844,0.1587 8.1036,0.1587c1.3094,0 1.8006,-0.08 2.4553,-0.7113c2.1281,-2.0532 3.0286,-12.7151 3.438,-34.6719l-22.0181,0a66.019,66.019 0 0 1 -7.8578,12.0055l14.324,0l3.11,-3.7916l8.5126,5.6869a5.8213,5.8213 0 0 1 -3.1105,1.5007l0,15.6376c0,0.0789 -2.21,1.8953 -7.6938,1.8953l0,-2.8434l-8.0214,0l0,19.666c0,2.0533 0.164,2.1322 3.52,2.1322l17.8435,0c1.8828,0 3.1105,-0.0789 3.9292,-0.9473c0.9,-1.027 2.1281,-3.7118 3.7651,-8.53l0.7365,0.0004zm-59.4247,2.369l7.94,0l0,-25.6679l-7.94,0l0,25.6679z" class="a"/>
  </clipPath>
  <linearGradient y2="0.44453" x2="0.66454" y1="-0.44723" x1="2.33624" id="a">
   <stop stop-color="#f29739" offset="0"/>
   <stop stop-color="#f08a38" offset="0.1462"/>
   <stop stop-color="#ef8337" offset="0.2883"/>
   <stop stop-color="#e73820" offset="0.6871"/>
   <stop stop-color="#e50020" offset="1"/>
  </linearGradient>
  <linearGradient xlink:href="#a" y2="137.5081" x2="-19.5819" y1="72.9234" x1="109.5874" id="b"/>
  <linearGradient xlink:href="#a" y2="196.5593" x2="9.9436" y1="131.9746" x1="139.113" id="c"/>
  <linearGradient xlink:href="#a" y2="238.9471" x2="31.1376" y1="174.3625" x1="160.3069" id="d"/>
  <linearGradient xlink:href="#a" y2="194.2177" x2="8.7729" y1="129.633" x1="137.9422" id="e"/>
  <linearGradient xlink:href="#a" y2="232.9502" x2="28.1391" y1="168.3655" x1="157.3084" id="f"/>
  <linearGradient xlink:href="#a" y2="98.1976" x2="-35.8878" y1="34.8633" x1="94.67" id="g"/>
  <linearGradient xlink:href="#a" y2="146.481" x2="-15.0955" y1="81.8963" x1="114.0739" id="h"/>
  <linearGradient xlink:href="#a" y2="150.429" x2="-13.1215" y1="85.8443" x1="116.0478" id="i"/>
  <linearGradient xlink:href="#a" y2="282.8383" x2="53.0832" y1="218.2537" x1="182.2525" id="j"/>
  <linearGradient xlink:href="#a" y2="162.9643" x2="-6.8538" y1="98.3796" x1="122.3155" id="k"/>
  <linearGradient xlink:href="#a" y2="180.7369" x2="2.0324" y1="116.1522" x1="131.2018" id="l"/>
  <linearGradient xlink:href="#a" y2="197.5518" x2="10.4399" y1="132.9671" x1="139.6093" id="m"/>
  <linearGradient xlink:href="#a" y2="214.5509" x2="18.9394" y1="149.9662" x1="148.1088" id="n"/>
  <linearGradient xlink:href="#a" y2="230.1113" x2="26.7197" y1="165.5266" x1="155.889" id="o"/>
 </defs>
 <g>
  <title>Layer 1</title>
  <path stroke="null" id="svg_2" fill="url(#a)" d="m77.81892,307.12743l0,8.7664c3.2744,1.106 3.7655,1.4218 3.7655,2.5269c0,2.9225 -2.6192,4.7389 -12.1145,4.7389l-18.1709,0c-9.0037,0 -11.1318,-1.6586 -11.1318,-8.7665l0,-24.5626l8.9219,3.396l6.9573,0l0,-14.9262l-15.4705,0l-0.3272,-0.8692a41.4007,41.4007 0 0 1 -5.4025,5.2125l2.2921,1.58a6.1425,6.1425 0 0 1 -3.1922,1.5006l0,28.8271c0,0.079 -2.21,1.9744 -7.6124,1.9744l0,-5.4494l-7.94,0l0,7.8192c0,0.5526 -2.3739,2.29 -6.139,2.29l-1.3088,0l0,-27.6424a72.8453,72.8453 0 0 1 -5.4844,6.8711l-1.1456,-1.0271c5.975,-11.0565 9.0037,-25.6678 10.4771,-40.0423l-9.7409,0l-0.409,-1.58l21.9365,0l4.5017,-5.5283l8.3489,5.7659c-0.6547,1.0262 -1.7187,1.342 -3.9287,1.342l-12.0323,0a86.3683,86.3683 0 0 1 -5.9754,22.1928l1.9645,0.79l6.0576,0l3.11,-3.9487l4.83,3.3171c4.6656,-7.1087 8.7579,-19.1133 10.8042,-30.96l11.6234,3.1593c-0.3275,1.027 -0.9823,1.5007 -3.11,1.58a72.568,72.568 0 0 1 -3.2744,7.6613l20.3802,0l3.52,-4.1863l8.1032,6.1606a4.7921,4.7921 0 0 1 -3.2739,1.4218c-0.4912,25.1144 -1.4735,35.4613 -5.1568,38.5408c-2.3735,2.133 -4.7474,3.0014 -9.2491,3.0014c0,-4.7389 -1.1462,-5.7651 -7.04,-6.95l0,-1.1849c2.2921,0.079 6.3844,0.1587 8.1036,0.1587c1.3094,0 1.8006,-0.08 2.4553,-0.7113c2.1281,-2.0532 3.0286,-12.7151 3.438,-34.6719l-22.0181,0a66.019,66.019 0 0 1 -7.8578,12.0055l14.324,0l3.11,-3.7916l8.5126,5.6869a5.8213,5.8213 0 0 1 -3.1105,1.5007l0,15.6376c0,0.0789 -2.21,1.8953 -7.6938,1.8953l0,-2.8434l-8.0214,0l0,19.666c0,2.0533 0.164,2.1322 3.52,2.1322l17.8435,0c1.8828,0 3.1105,-0.0789 3.9292,-0.9473c0.9,-1.027 2.1281,-3.7118 3.7651,-8.53l0.7365,0.0004zm-59.4247,2.369l7.94,0l0,-25.6679l-7.94,0l0,25.6679z" class="b"/>
  <rect x="3.48592" stroke="null" id="svg_3" fill="url(#b)" height="75.3018" width="75.3043" y="73.14223" class="c"/>
  <path stroke="null" id="svg_4" fill="url(#c)" d="m99.25292,138.02024l0,7.009c7.7088,2.3365 10.1881,5.7187 10.1881,8.2391a3.4379,3.4379 0 0 1 -3.418,3.4445a3.8064,3.8064 0 0 1 -2.7474,-1.2915a18.8312,18.8312 0 0 0 -4.0227,-9.2849l0,27.24c-0.0676,0.43 -2.2787,1.9059 -5.7643,1.9059l-1.2053,0l0,-22.568a52.1011,52.1011 0 0 1 -10.3888,11.6216l-0.9383,-0.7988c5.0928,-6.9479 8.4429,-16.54 10.2537,-25.5172l-9.3154,0l-0.3345,-1.233l10.7233,0l0,-9.7752c-3.6215,0.7386 -7.4411,1.4145 -10.926,1.906l-0.2673,-0.8a143.2963,143.2963 0 0 0 20.9779,-10.5756l8.1772,6.0877a2.6752,2.6752 0 0 1 -1.8759,0.5526a9.2358,9.2358 0 0 1 -2.3462,-0.3683c-1.9458,0.5543 -4.2225,1.1072 -6.77,1.6594l0,11.3137l1.8762,0l3.4181,-4.4259l6.3,4.6123c-0.5351,0.7995 -1.406,1.0466 -3.1492,1.0466l-8.4452,0zm39.8116,9.96l6.2354,4.4275c-0.27,0.6747 -0.8707,1.1073 -2.2131,1.2912l-8.3783,1.4132l0,17.771c0,0.1241 -1.0714,2.3364 -6.97,2.3364l0,-18.8758l-19.9052,3.3822l-0.6071,-1.1072l20.5119,-3.5674l0,-37.57l9.6519,0.8614c-0.1351,0.8606 -0.6685,1.2915 -2.6815,1.5349l0,33.9435l1.54,-0.2449l2.816,-5.596zm-28.6855,-7.9315c10.1866,0.4915 13.5391,3.9954 13.5391,6.7628a3.6443,3.6443 0 0 1 -3.6854,3.5674a4.7231,4.7231 0 0 1 -2.75,-0.9843c-1.0042,-3.1364 -4.1546,-6.8268 -7.4383,-8.7933l0.3346,-0.5526zm2.0772,-16.2976c9.582,1.17 12.7359,4.7361 12.7359,7.4433a3.643,3.643 0 0 1 -3.6207,3.6271a4.2257,4.2257 0 0 1 -2.8145,-1.1063c-0.7365,-3.3217 -3.6191,-7.2573 -6.7027,-9.4713l0.402,-0.4928z" class="d"/>
  <path stroke="null" id="svg_5" fill="url(#d)" d="m132.09662,216.03744l4.2876,-5.1052l7.7752,5.2891c-0.5347,0.7381 -1.3388,1.0457 -3.2834,1.0457l-24.264,0l0,9.9c0,4.4891 -1.2728,7.6857 -10.589,8.4255c0,-4.7967 -2.8842,-5.7822 -9.45,-6.3966l0,-0.7992l11.3276,0c1.0726,0 1.405,-0.3679 1.405,-1.23l0,-9.9l-27.0086,0l-0.4025,-1.23l27.4114,0l0,-6.0866l5.6984,0.3076a64.3993,64.3993 0 0 0 7.1726,-7.3789l-27.8155,0l-0.4016,-1.2313l28.3486,0l4.2245,-3.6272l4.087,3.6272a73.0715,73.0715 0 0 0 2.6156,-7.2544l-41.2208,0a9.4445,9.4445 0 0 1 0.1335,1.906c0,4.734 -3.0156,7.3154 -6.5,7.3154c-2.0786,0 -3.7534,-1.0425 -3.7534,-2.7646c0,-1.5373 1.3416,-2.83 2.9477,-3.4432a7.6,7.6 0 0 0 4.8942,-7.3187l0.9376,-0.0619a17.1579,17.1579 0 0 1 1.0718,3.1357l29.4908,0a95.0648,95.0648 0 0 0 7.7074,-14.818l9.7194,3.5661a1.625,1.625 0 0 1 -1.6077,0.7984a7.19,7.19 0 0 1 -1.0723,-0.1221a78.8387,78.8387 0 0 1 -13.0027,10.5756l9.8541,0l4.1509,-3.873l7.3085,6.3332c-0.4712,0.5534 -1.2077,0.6771 -2.6144,0.7992a63.66,63.66 0 0 1 -10.1215,6.0263l1.8779,1.66c-0.5379,0.4923 -1.34,0.6144 -2.8166,0.7381a109.448,109.448 0 0 1 -12.8022,5.5958l1.3412,0.06c-0.0648,0.7975 -0.4692,1.23 -2.5469,1.4136l0,4.1212l15.4846,0.0012zm-40.9535,-36.7725c8.3783,2.03 11.1262,5.4754 11.1262,8.1187a3.7943,3.7943 0 0 1 -3.7546,3.8135a4.1987,4.1987 0 0 1 -2.9488,-1.3542a17.7028,17.7028 0 0 0 -4.8919,-10.147l0.4691,-0.431zm15.6831,-1.475c7.9071,2.46 10.456,5.9046 10.456,8.6089a4.2615,4.2615 0 0 1 -4.1534,4.2425a4.1605,4.1605 0 0 1 -3.2165,-1.5968a17.4847,17.4847 0 0 0 -3.6243,-10.8856l0.5382,-0.369z" class="e"/>
  <path stroke="null" id="svg_6" fill="url(#e)" d="m73.21312,156.45733l4.7983,4.653c-0.3536,0.4147 -0.9111,0.518 -1.8682,0.621a31.2533,31.2533 0 0 1 -5.4053,4.5521l-0.6068,-0.363l0.1009,-0.5159a3.5423,3.5423 0 0 1 -1.7175,0.3072l-10.6578,0l-0.3035,-1.0331l7.0727,0l2.1192,-2.5314l3.6386,2.4288c0.251,-1.3448 0.4557,-3 0.6054,-4.2909l-15.0009,0l0,12.2521c0,0.26 -1.6167,1.189 -4.3441,1.189l-0.9591,0l0,-13.4411l-14.1426,0a9.67,9.67 0 0 1 0.1509,1.6542c0,2.8422 -1.5161,5.068 -4.0405,5.068c-1.517,0 -2.8289,-0.8293 -2.8289,-2.38a3.2347,3.2347 0 0 1 2.2222,-2.8438a4.6351,4.6351 0 0 0 2.78,-4.6538l0.7051,-0.05q0.4536,1.1616 0.7573,2.17l14.3965,0l0,-4.9114l-15.8101,0l-0.3032,-1.0348l30.1553,0l2.88,-3.7236l5.4038,3.8266c-0.3536,0.7238 -1.0107,0.9318 -2.3759,0.9318l-14.6467,0l0,4.9114l14.5466,0l2.6783,-2.7924zm-27.9836,10.8568l4.0915,2.7417c-0.3548,0.6723 -1.0112,0.8794 -2.2234,0.8794l-11.1617,0l-0.3035,-1.0348l7.4753,0l2.1218,-2.5863zm29.7521,20.1656l0,4.5517c2.017,0.8252 2.2729,0.93 2.2729,1.757c0,1.915 -1.5662,3.0494 -7.3264,3.0494l-12.02,0c-5.9616,0 -7.1726,-0.9814 -7.1726,-6.2542l0,-2.5855l-9.193,0l0,1.4991c0,0.1554 -0.8093,1.9638 -5.2536,1.9638l0,-18.4571l5.6573,2.275l23.0819,0l2.1225,-2.793l5.6584,4.0841a3.7445,3.7445 0 0 1 -1.97,1.0869l0,11.22c0,0.05 -1.4669,1.4982 -5.3049,1.4982l0,-2.377l-9.5459,0l0,2.894c0,1.7587 0.151,1.8629 2.1713,1.8629l12.0205,0c2.6787,0 2.7295,0 4.244,-5.2752l0.5576,-0.0001zm-29.9038,-25.2821l3.9405,2.6355c-0.354,0.6743 -1.0108,0.8786 -2.2222,0.8786l-10.0023,0l-0.2514,-1.0331l6.5147,0l2.0207,-2.481zm5.6572,14.1157l-9.1925,0l0,4.7043l9.1925,0l0,-4.7043zm-9.1925,10.65l9.1925,0l0,-4.9123l-9.1925,0l0,4.9123zm23.9918,-10.65l-9.5461,0l0,4.7043l9.5461,0l0,-4.7043zm-9.5461,10.65l9.5461,0l0,-4.9123l-9.5461,0l0,4.9123zm11.7182,-19.7523l4.3458,2.8443c-0.4045,0.6723 -1.0633,0.8794 -2.2754,0.8794l-11.97,0l-0.3028,-1.0348l7.9812,0l2.2212,-2.6889z" class="f"/>
  <path stroke="null" id="svg_7" fill="url(#f)" d="m77.67162,223.49613c-0.2494,0.6339 -0.7443,1.0018 -2.3585,0.95a110.293,110.293 0 0 1 -10.68,17.4239c2.2978,-0.1555 4.9057,-0.3679 7.5754,-0.5795a20.7748,20.7748 0 0 0 -2.4215,-5.053l0.7446,-0.3141c6.21,3.1031 8.2587,6.5789 8.2587,9.1058a3.2133,3.2133 0 0 1 -5.65,2.5277a15.1589,15.1589 0 0 0 -0.56,-4.9488c-2.4821,1.1036 -5.8961,2.4732 -10.182,4.1586a2.1733,2.1733 0 0 1 -1.6773,1.21l-0.93,-1.9978a3.043,3.043 0 0 1 -2.7308,1.7855a3.0787,3.0787 0 0 1 -2.3626,-1.1036a15.7742,15.7742 0 0 0 -0.3084,-3.7891c-2.6087,1.0523 -6.0857,2.4757 -10.4938,4.2115a2.3352,2.3352 0 0 1 -1.6756,1.2094l-2.5469,-5.6325a11.5139,11.5139 0 0 1 -4.6558,0.74l0,-3.53l-5.1542,0l0,5.1051c0,0.372 -1.7391,1.4755 -4.5333,1.4755l-0.9929,0l0,-18.1621a37.9146,37.9146 0 0 1 -3.54,4.1034l-0.8691,-0.682c4.161,-7.2642 6.2721,-16.899 7.3891,-26.27l-6.8285,0l-0.3121,-1.0514l14.7781,0l3.3518,-3.6346l6.21,3.7395c-0.4354,0.6844 -1.3037,0.9465 -2.9183,0.9465l-7.9464,0a53.9534,53.9534 0 0 1 -4.3462,14.6886l1.3021,0.4745l3.8506,0l2.2355,-2.53l6.1473,3.7411a4.1812,4.1812 0 0 1 -2.2377,0.9465l0,0.7357l0.1262,-0.1042a24.506,24.506 0 0 1 4.345,1.5821c1.0567,-3.5312 2.1106,-8.4263 2.9187,-12.6378l7.8233,1.8425c-0.1848,0.6323 -0.7443,1 -2.2347,1a65.8406,65.8406 0 0 1 -7.0791,10.5845c1.987,1.3135 2.7336,2.7352 2.7336,3.9453a2.8924,2.8924 0 0 1 -2.98,2.8436a3.43,3.43 0 0 1 -2.2967,-1a12.6151,12.6151 0 0 0 -3.3558,-7.37l0,17.8976c0,0.1057 -0.3084,0.2636 -0.7437,0.4736c1.3672,-0.0513 3.2914,-0.21 5.65,-0.3679a180.54,180.54 0 0 0 6.8927,-20.6872l7.4506,1.9458l-0.0623,0.1579a11.7167,11.7167 0 0 1 2.2347,0.95c1.1186,-3.4775 2.2978,-8.108 3.1666,-12.2154l7.9486,1.95c-0.1868,0.682 -0.7476,0.9978 -2.2995,0.9978a61.6435,61.6435 0 0 1 -7.2014,10.2675c1.801,1.2614 2.483,2.6311 2.483,3.7908a3.0556,3.0556 0 0 1 -3.1031,2.9476a3.333,3.333 0 0 1 -2.4854,-1.1076a11.8838,11.8838 0 0 0 -2.3577,-6.7368l-0.6836,0a110.3839,110.3839 0 0 1 -10.1828,17.6339c2.0479,-0.1563 4.3465,-0.3655 6.705,-0.5779a15.7245,15.7245 0 0 0 -2.2352,-4.8951l0.6841,-0.2637c3.9734,1.8954 6.146,3.947 7.0769,5.79l3.0437,-0.1578a191.4479,191.4479 0 0 0 7.4513,-20.5848l7.6357,2.1054zm-47.8087,15.3747l5.1536,0l0,-17.2164l-5.1536,0l0,17.2164zm11.2385,-28.1663l21.5445,0c1.2419,-3.3692 2.5457,-8.1065 3.3526,-11.3715l9.1282,2.2112c-0.2494,0.6306 -0.87,0.8943 -2.3605,0.8446a118.0356,118.0356 0 0 1 -8.692,8.3157l4.9684,0l3.4127,-3.6858l6.3348,3.7924c-0.4367,0.7357 -1.3058,0.9457 -2.92,0.9457l-34.4574,0l-0.3113,-1.0523zm4.47,-11.2128c7.45,1.8409 9.8732,4.8439 9.8732,7.16a3.3825,3.3825 0 0 1 -3.416,3.3171a3.7271,3.7271 0 0 1 -2.6706,-1.106a15.0672,15.0672 0 0 0 -4.2839,-9.0553l0.4973,-0.3158z" class="g"/>
  <path id="svg_8" fill="url(#g)" d="m118.79432,15.80164c0.6624,-1.1588 2.4231,-1.772 4.55,-1.772c4.0374,0 8.7344,4.633 8.7344,7.3585c0,2.9289 -2.7894,3.27 -6.3873,3.9535c-15.1159,3.3371 -33.54,10.6953 -33.54,19.5525c0,6.3368 7.4126,6.95 16.6633,6.95c7.0448,0 14.1633,-0.9542 16.2162,-2.452c4.8458,0.5436 8.8836,1.6337 8.8836,4.3584c0,2.25 -3.1588,2.9985 -7.0464,3.4762a151.9229,151.9229 0 0 1 -17.688,0.8855c-12.4775,0 -22.1656,-2.8618 -22.1656,-12.6052c0,-6.6771 7.5583,-12.4678 15.0455,-16.6227c-4.7694,-1.8413 -4.7694,-7.4957 -4.7694,-16.558l0,-2.7939c0,-1.7709 0,-4.7686 -4.3315,-4.7686a7.8382,7.8382 0 0 0 -1.246,0.1363l-0.2213,-0.4089a5.9725,5.9725 0 0 1 5.2841,-3.0653c4.99,0.0668 9.1746,2.9294 9.1746,5.995c0,1.0914 -0.8093,2.4533 -1.1743,4.0866a35.3308,35.3308 0 0 0 -0.66,7.02c0,2.6563 0,7.4253 3.0844,7.97c3.0791,-1.4975 8.2912,-3.882 11.8154,-5.3814c2.2018,-0.885 3.5951,-1.7709 3.5951,-2.9977c0,-1.0914 -1.7611,-2.249 -3.5951,-2.0456l-0.2217,-0.2712z" class="h"/>
  <path stroke="null" id="svg_9" fill="url(#h)" d="m131.54362,65.00964c2.0337,0.2588 5.2491,0.9082 5.2491,2.5937c0,1.5991 -2.4838,2.1619 -6.2273,2.9826a80.938,80.938 0 0 1 -8.2575,1.34c-0.1627,1.512 -0.245,3.4571 -0.3247,5.4883a19.7687,19.7687 0 0 1 6.6713,-0.95a4.0909,4.0909 0 0 0 -0.3239,-1.9023l0.3239,-0.2593a4.01,4.01 0 0 1 1.9947,2.3349c6.5891,0.8211 11.2685,4.71 11.2685,10.589c0,6.3974 -5.0469,10.8059 -17.902,12.0156l-0.2429,-0.8207c9.1107,-1.3839 13.384,-6.0952 13.4255,-11.4118c0,-4.3218 -2.0743,-7.6068 -6.2631,-8.7311l0,0.346c0,2.076 -2.2,7.09 -5.9836,11.2823a3.9478,3.9478 0 0 1 0.6515,1.8144c0,0.8215 -0.4082,2.4651 -1.7493,2.4651a2.75,2.75 0 0 1 -1.9528,-1.3836a13.8272,13.8272 0 0 1 -8.4612,3.37a4.51,4.51 0 0 1 -4.68,-4.6677c0,-5.1861 3.7847,-10.2874 9.9705,-13.0537c0.0382,-2.1171 0.0382,-4.3217 0.0785,-6.3091c-0.7731,0.0411 -1.5882,0.0855 -2.3182,0.0855a5.6668,5.6668 0 0 1 -5.8183,-4.2363l0.3678,-0.389c0.8944,0.994 2.4806,1.4693 4.841,1.4693c0.8948,0 2.0346,-0.0859 3.0087,-0.129c0.044,-1.4266 0.0814,-2.983 0.0814,-3.761c0,-1.6847 -0.4069,-2.42 -2.9282,-2.2035l-0.0821,-0.2168a3.5786,3.5786 0 0 1 3.1335,-1.9886c3.0511,0 5.0844,1.2976 5.0844,2.68c0,0.6918 -0.7723,1.3827 -0.9749,2.3344c-0.162,0.7345 -0.2845,1.6415 -0.4485,2.68c2.32,-0.302 8.257,-1.34 8.6253,-3.3278l0.1629,-0.1298zm-16.5572,27.0143a9.0692,9.0692 0 0 0 5.0433,-2.29a25.7343,25.7343 0 0 1 -1.3,-9.0765c-3.9487,2.5058 -6.2269,5.7476 -6.2269,9.0334c0.0003,1.772 0.5731,2.3331 2.4836,2.3331zm6.9968,-13.096a20.4158,20.4158 0 0 0 1.22,7.9092a22.0457,22.0457 0 0 0 5.2475,-8.9464a9.2887,9.2887 0 0 0 -1.058,-0.0435a17.22,17.22 0 0 0 -5.4095,1.0807z" class="i"/>
  <path stroke="null" id="svg_10" fill="url(#i)" d="m92.66092,98.86044a21.7377,21.7377 0 0 1 9.28,-2.6079c7.2861,0 9.8972,4.0276 9.8972,8.7433c0,5.6373 -4.797,9.6259 -12.6182,9.6259c-5.0615,0 -8.0137,-2.225 -8.0137,-5.2549c0,-2.2995 2.3389,-4.7161 5.9812,-4.7161c3.145,0 6.7116,2.1465 6.8263,5.1a3.0714,3.0714 0 0 1 -0.1929,1.0347a6.627,6.627 0 0 0 4.0654,-6.2115c0,-4.3332 -2.1089,-6.7486 -6.3653,-6.7486a17.0866,17.0866 0 0 0 -13.23,7.4013c-0.65,0.92 -1.2276,2.109 -2.3377,2.109c-1.1894,0 -1.8808,-1.4953 -1.8808,-2.109c0,-1.5731 1.0369,-2.5313 2.0342,-3.49c3.22,-3.1056 10.5434,-10.4287 15.1061,-14.9544c0.1945,-0.1913 0.27,-0.3068 0.27,-0.4211s-0.1161,-0.1921 -0.3443,-0.1921a29.514,29.514 0 0 0 -7.9388,2.4927c-0.8818,0.5368 -1.1109,0.92 -1.9935,0.92a4.2069,4.2069 0 0 1 -3.7187,-4.0275a2.7251,2.7251 0 0 1 1.1485,-2.1848l0.1925,0.0777a2.0546,2.0546 0 0 0 2.3393,2.223a44.7614,44.7614 0 0 0 9.7007,-1.61c0.7674,-0.3068 1.1886,-1.0746 1.7249,-1.0746c1.8046,0 4.22,2.1089 4.22,3.221c0,1.1891 -1.3806,1.3038 -2.7995,2.2628a82.3308,82.3308 0 0 0 -11.6198,10.2377l0.2669,0.1534zm6.0991,12.8848a12.6471,12.6471 0 0 0 2.2621,-0.23a1.6119,1.6119 0 0 1 -0.3841,-0.7675a4.7653,4.7653 0 0 0 -4.5228,-4.102c-1.8031,0 -2.8382,0.9205 -2.8773,2.3c0,2.262 2.8773,2.7995 5.5221,2.7995z" class="j"/>
  <path stroke="null" id="svg_11" fill="url(#j)" d="m108.87592,274.83984c13.4162,-2.6009 18.383,-10.8075 18.383,-18.71c0,-9.5315 -3.8558,-16.6158 -14.7382,-16.6158a21.7884,21.7884 0 0 0 -4.7535,0.61a6.3715,6.3715 0 0 1 3.5392,6.0662c0,9.7862 -6.8666,24.6726 -14.8416,24.6726c-4.4927,0 -7.7138,-4.3344 -7.7138,-11.4708c0,-11.0615 9.5083,-21.5093 23.93,-21.5093c13.1525,0 20.7052,7.5442 20.7052,18.5038c0,10.1419 -6.3385,17.9936 -24.2449,19.4194l-0.2654,-0.9661zm-2.6416,-34.41c-7.7635,2.4461 -12.5184,9.9922 -12.5184,18.7579c0,3.619 1.0039,5.9148 2.9066,5.9148c4.7519,0 10.6684,-12.49 10.6684,-21.4116a4.5458,4.5458 0 0 0 -1.0567,-3.261l0.0001,-0.0001z" class="k"/>
  <g stroke="null" id="svg_12">
   <path stroke="null" id="svg_13" fill="url(#k)" d="m8.34322,161.25795a9.62,9.62 0 0 0 5.5583,-4.1469a10.4512,10.4512 0 0 0 1.2859,1.2989a12.6082,12.6082 0 0 1 -7.6629,4.9623a0.44,0.44 0 0 1 -0.2674,0.3039l-0.9692,-1.613l0.1863,-0.3146l0,-8.0934l2.2433,0.116c-0.0126,0.1408 -0.1172,0.2584 -0.3743,0.3028l0,7.184z" class="l"/>
   <path stroke="null" id="svg_14" fill="url(#l)" d="m8.86852,174.53085l2.3246,0.1176c-0.0113,0.1392 -0.118,0.2563 -0.3747,0.3142l0,9.5546l-1.95,0l0.0001,-9.9864z" class="m"/>
   <path stroke="null" id="svg_15" fill="url(#m)" d="m8.22592,197.18275a0.3193,0.3193 0 0 1 -0.3146,0.2807c-0.0463,3.4433 -0.3975,6.0841 -1.9039,8.29c-0.41,-0.2678 -1.0982,-0.6633 -1.6,-0.92c1.4705,-1.7773 1.6813,-4.8609 1.6573,-7.78l2.1612,0.1293zm2.99,5.7561a6.433,6.433 0 0 0 2.6518,-4.0407a10.6778,10.6778 0 0 0 1.6,0.9824a8.8172,8.8172 0 0 1 -4.6363,5.3825a0.9921,0.9921 0 0 1 -0.3043,0.3166l-1.3331,-1.5422l0.2108,-0.2816l0,-8.1626l2.1725,0.1067c-0.0232,0.1375 -0.1168,0.2653 -0.3613,0.3158l-0.0001,6.9231z" class="n"/>
   <path stroke="null" id="svg_16" fill="url(#n)" d="m14.53302,219.08415a0.4123,0.4123 0 0 1 -0.1635,0.21c-0.175,3.6337 -0.5261,5.713 -0.9681,6.3788a2.194,2.194 0 0 1 -1.9169,0.98a10.7578,10.7578 0 0 1 -1.9731,-0.2083a11.58,11.58 0 0 0 -0.1408,-1.7871a11.4194,11.4194 0 0 0 1.7505,0.2555a0.7139,0.7139 0 0 0 0.737,-0.4338a14.099,14.099 0 0 0 0.56,-4.0527l-2.4517,0a10.8889,10.8889 0 0 1 -3.552,6.2387a9.5918,9.5918 0 0 0 -1.4585,-1.0746a8.73,8.73 0 0 0 3.119,-5.1743l-2.6534,0l0,-1.6577l2.98,0c0.1055,-0.7942 0.1169,-1.4477 0.1628,-2.3137l2.2771,0.188c-0.0228,0.14 -0.14,0.2442 -0.3736,0.28c-0.07,0.6877 -0.0923,1.2037 -0.1863,1.8572l2.6162,0l0.3263,-0.1278l1.309,0.4418zm-2.0788,-2.8589a9.9312,9.9312 0 0 1 1.309,1.5772l-0.83,0.6038a12.4466,12.4466 0 0 0 -1.2614,-1.5975l0.7824,-0.5835zm1.8913,-0.4444a10.1589,10.1589 0 0 1 1.32,1.53l-0.8289,0.6054a11,11 0 0 0 -1.261,-1.5535l0.7699,-0.5819z" class="o"/>
   <path stroke="null" id="svg_17" fill="url(#o)" d="m6.13492,238.12595a15.2009,15.2009 0 0 1 3.3993,1.508l-0.9339,1.6235a18.2326,18.2326 0 0 0 -3.3057,-1.5877l0.8403,-1.5438zm-0.559,7.8021a11.6894,11.6894 0 0 0 7.8493,-6.644a11.9033,11.9033 0 0 0 1.67,1.05a13.65,13.65 0 0 1 -8.0383,7.0657a0.4445,0.4445 0 0 1 -0.22,0.3158l-1.261,-1.7875z" class="p"/>
  </g>
  <path stroke="null" id="svg_18" fill="#fff" d="m28.87462,118.78493l0,15.4185c5.2874,1.6887 11.9688,2.0578 20.56,2.0578c6.1684,0 21.0722,0 27.68,-0.2213l0,1.027c-2.8629,0.5884 -4.2579,3.1592 -4.4043,6.0215l-23.4971,0c-17.6212,0 -27.1669,-2.9383 -33.04,-15.933c-1.3957,6.8279 -3.7444,13.3633 -8.15,17.9154l-1.0262,-0.881c3.3037,-8.59 3.5967,-24.0829 3.5967,-34.3619l9.9851,0.5132c-0.1477,0.9538 -0.7329,1.5405 -2.6428,1.7627c-0.221,3.8913 -0.5876,8.1488 -1.248,12.3343a20.26,20.26 0 0 0 5.1384,6.095l0,-27.1669l-13.9496,0l-0.3678,-1.3941l14.0241,0l0,-12.6309l-11.013,0l-0.4411,-1.4672l11.4541,0l0,-11.6734l9.9856,0.88c-0.0736,1.0278 -0.7341,1.4677 -2.7894,1.7611l0,9.0318l2.2027,0l3.597,-4.625l6.8288,4.8447c-0.5876,0.9555 -1.4694,1.2475 -3.3769,1.2475l-9.2516,0l0,12.6314l3.01,0l3.8172,-5.1406l7.1221,5.2134c5.2137,-6.6819 6.02,-13.6571 6.2408,-19.8979l-8.81,0l-0.441,-1.4677l26.14,0l3.0832,-3.6719l7.6349,5.6539a4.4774,4.4774 0 0 1 -2.717,1.2476c-0.7328,17.1814 -2.3494,21.1463 -12.1136,21.1463c0,-4.2583 -0.809,-5.5812 -5.8014,-6.6086l0,-1.0278c1.6887,0.0737 5.1388,0.147 6.46,0.147c1.0291,0 1.471,-0.0733 1.9113,-0.4411c1.1747,-1.0279 1.8343,-5.6532 2.2017,-14.978l-9.3965,0c-0.8818,8.0767 -3.4514,16.8876 -14.0974,23.6423l7.1223,2.9371l13.3627,0l3.0091,-3.9649l8.2974,5.8741a5.423,5.423 0 0 1 -2.9379,1.4685l0,17.7665c0,0.1481 -1.9077,2.498 -7.637,2.498l0,-4.4056l-14.4615,0l0,2.8638c0,0.0749 -1.1031,2.6437 -7.4159,2.6437l0,-27.2394a41.4515,41.4515 0 0 1 -4.4056,2.3483l-0.8081,-0.9541a44.5419,44.5419 0 0 0 4.9928,-4.6995l-0.0721,0a6.2972,6.2972 0 0 1 -2.719,0.4407l-8.3688,0c-0.2219,0.4407 -0.8074,0.7341 -2.0574,0.955l0,12.9955l2.57,0l3.5242,-5.2129l6.6082,5.359c-0.588,0.9546 -1.6146,1.3221 -3.45,1.3221l-9.2524,0zm35.3156,-8.59l-14.4615,0l0,16.3l14.4615,0l0,-16.3z" class="q"/>
 </g>
</svg>